# xmcd
#
# Track frame offsets: 
#        150
#        24183
#        45788
#        69569
#
# Disc length: 1323 seconds
#
# Revision: 0
# Processed by: cddbd v1.5.2PL0 Copyright (c) Steve Scherf et al.
# Submitted via: ExactAudioCopy v0.99pb4
#
DISCID=22052904
DTITLE=Zero 7 - EP2 (Promo Release)
DYEAR=2000
DGENRE=Trip-Hop
TTITLE0=Give It Away
TTITLE1=Polaris
TTITLE2=Distractions
TTITLE3=Monday Night
EXTD=
EXTT0=
EXTT1=
EXTT2=
EXTT3=
PLAYORDER=
